<?xml version="1.0" encoding="UTF-8" standalone="no"?>
<svg width="464px" height="534px" viewBox="0 0 464 534" version="1.1" xmlns="http://www.w3.org/2000/svg" xmlns:xlink="http://www.w3.org/1999/xlink" xmlns:sketch="http://www.bohemiancoding.com/sketch/ns">
    <!-- Generator: Sketch 3.3.3 (12072) - http://www.bohemiancoding.com/sketch -->
    <title>Untitled</title>
    <desc>Created with Sketch.</desc>
    <defs></defs>
    <g id="Page-1" stroke="none" stroke-width="1" fill="none" fill-rule="evenodd" sketch:type="MSPage">
        <g id="flames8" sketch:type="MSLayerGroup" fill="#FFFFFF">
            <path d="M141.197,377.061 C171.114,333.333 178.824,290.048 178.824,290.048 C178.824,290.048 202.342,320.621 192.934,368.438 C234.482,322.188 242.323,248.5 236.049,220.279 C329.963,285.909 370.1,428.016 316.009,533.333 C603.704,370.557 387.571,126.994 349.943,99.558 C362.486,126.993 364.865,173.438 339.527,195.978 C296.635,33.333 190.583,0 190.583,0 C203.126,83.877 145.117,175.596 89.179,244.13 C87.214,210.684 85.126,187.605 67.538,155.599 C63.59,216.357 17.157,265.884 4.583,326.76 C-12.449,409.2 17.341,469.562 130.494,533.333 C94.949,459.371 113.878,416.99 141.197,377.061 Z" id="Shape" sketch:type="MSShapeGroup"></path>
        </g>
    </g>
</svg>