<?xml version="1.0" encoding="UTF-8" standalone="no"?>
<svg width="25px" height="32px" viewBox="0 0 25 32" version="1.1" xmlns="http://www.w3.org/2000/svg" xmlns:xlink="http://www.w3.org/1999/xlink" xmlns:sketch="http://www.bohemiancoding.com/sketch/ns">
    <!-- Generator: Sketch 3.3.3 (12072) - http://www.bohemiancoding.com/sketch -->
    <title>first31</title>
    <desc>Created with Sketch.</desc>
    <defs></defs>
    <g id="Page-1" stroke="none" stroke-width="1" fill="none" fill-rule="evenodd" sketch:type="MSPage">
        <g id="first31" sketch:type="MSLayerGroup" fill="#FFFFFF">
            <g id="Group" sketch:type="MSShapeGroup">
                <path d="M3.492,21.25 L0.768,28.967 L5.705,27.32 L8.513,31.701 L11.271,23.889 L8.651,21.607 L3.492,21.25 Z" id="Shape"></path>
                <path d="M22.21,21.25 L17.052,21.607 L14.431,23.889 L17.188,31.701 L19.996,27.32 L24.934,28.967 L22.21,21.25 Z" id="Shape"></path>
                <path d="M20.957,19.572 L21.277,14.955 L24.316,11.466 L21.277,7.976 L20.957,3.359 L16.342,3.039 L12.852,0 L9.361,3.039 L4.745,3.359 L4.425,7.977 L1.387,11.467 L4.425,14.956 L4.745,19.572 L9.362,19.891 L12.853,22.928 L16.343,19.891 L20.957,19.572 L20.957,19.572 Z M12.791,17.826 C9.245,17.826 6.369,14.951 6.369,11.406 C6.369,7.861 9.244,4.984 12.791,4.984 C16.338,4.984 19.213,7.86 19.213,11.406 C19.213,14.952 16.337,17.826 12.791,17.826 L12.791,17.826 Z" id="Shape"></path>
                <path d="M10.667,8.691 L10.943,9.954 L12.31,9.311 L12.326,9.311 L12.326,14.962 L13.957,14.962 L13.957,7.797 L12.562,7.797 L10.667,8.691 Z" id="Shape"></path>
            </g>
        </g>
    </g>
</svg>