<?xml version="1.0" encoding="UTF-8" standalone="no"?>
<svg width="250px" height="205px" viewBox="0 0 250 205" version="1.1" xmlns="http://www.w3.org/2000/svg" xmlns:xlink="http://www.w3.org/1999/xlink" xmlns:sketch="http://www.bohemiancoding.com/sketch/ns">
    <!-- Generator: Sketch 3.3.3 (12072) - http://www.bohemiancoding.com/sketch -->
    <title>Shape</title>
    <desc>Created with Sketch.</desc>
    <defs></defs>
    <g id="Page-1" stroke="none" stroke-width="1" fill="none" fill-rule="evenodd" sketch:type="MSPage">
        <g id="favorite7" sketch:type="MSLayerGroup" transform="translate(-1.000000, 0.000000)" fill="#FFFFFF">
            <path d="M250.183,66.644 C249.243,49.073 241.804,32.574 229.236,20.186 C216.48,7.612 199.822,0.687 182.332,0.687 C156.141,0.687 137.597,20.917 127.635,31.786 C127.068,32.404 126.459,33.068 125.864,33.71 C125.545,33.348 125.228,32.987 124.926,32.643 C115.82,22.27 96.87,0.687 68.972,0.687 C51.482,0.687 34.825,7.612 22.069,20.186 C9.5,32.574 2.061,49.073 1.121,66.644 C0.187,84.111 4.628,99.268 15.517,115.79 C25.276,130.601 50.69,154.018 69.487,169.57 C88.807,185.556 114.254,204.612 125.759,204.612 C137.445,204.612 162.802,185.596 182.015,169.644 C200.666,154.159 225.94,130.761 235.79,115.784 C243.119,104.64 251.379,88.983 250.183,66.644 L250.183,66.644 Z M223.258,107.542 C216.101,118.427 195.927,138.537 173.057,157.586 C145.788,180.3 129.643,189.252 125.771,189.608 C121.905,189.205 105.72,180.163 78.318,157.407 C55.314,138.303 35.11,118.261 28.042,107.536 C19.031,93.864 15.348,81.5 16.099,67.444 C17.626,38.905 41.345,15.686 68.971,15.686 C90.078,15.686 105.414,33.154 113.654,42.537 C118.498,48.055 121.167,51.094 125.653,51.094 C130.284,51.094 133.271,47.835 138.693,41.92 C147.687,32.107 162.74,15.686 182.332,15.686 C209.959,15.686 233.677,38.905 235.205,67.444 C235.965,81.659 232.392,93.652 223.258,107.542 L223.258,107.542 Z" id="Shape" sketch:type="MSShapeGroup"></path>
        </g>
    </g>
</svg>