<?xml version="1.0" encoding="UTF-8" standalone="no"?>
<svg width="338px" height="434px" viewBox="0 0 338 434" version="1.1" xmlns="http://www.w3.org/2000/svg" xmlns:xlink="http://www.w3.org/1999/xlink" xmlns:sketch="http://www.bohemiancoding.com/sketch/ns">
    <!-- Generator: Sketch 3.3.3 (12072) - http://www.bohemiancoding.com/sketch -->
    <title>mind</title>
    <desc>Created with Sketch.</desc>
    <defs></defs>
    <g id="Page-1" stroke="none" stroke-width="1" fill="none" fill-rule="evenodd" sketch:type="MSPage">
        <g id="mind" sketch:type="MSLayerGroup" fill="#FFFFFF">
            <g id="Group" transform="translate(169.000000, 217.000000) scale(-1, 1) translate(-169.000000, -217.000000) " sketch:type="MSShapeGroup">
                <ellipse id="Oval" cx="192.688" cy="193.274" rx="8.854" ry="8.854"></ellipse>
                <circle id="Oval" cx="243.282" cy="131.15" r="11.732"></circle>
                <ellipse id="Oval" cx="141.684" cy="115.971" rx="15.73" ry="15.73"></ellipse>
                <path d="M305.976,64.246 C286.904,40.384 237.367,0 172.67,0 C129.412,0 88.249,18.085 50.327,53.752 C50.262,53.814 50.198,53.876 50.136,53.94 C13.155,91.983 17.987,127.125 24.108,171.64 C24.484,174.378 24.866,177.154 25.244,179.972 C26.258,187.537 19.637,199.207 13.233,210.494 C3.61,227.452 -6.339,244.988 5.816,253.271 C26.587,267.427 30.196,295.29 33.689,322.249 C34.519,328.651 35.377,335.271 36.449,341.707 C38.299,352.811 47.668,358.208 65.091,358.208 C72.838,358.208 81.111,357.251 89.118,356.326 C95.979,355.534 102.46,354.784 107.648,354.784 C110.548,354.784 112.814,355.015 114.573,355.492 C135.506,361.165 153.793,403.491 160.404,428.837 C160.94,430.895 162.525,432.514 164.57,433.094 C165.111,433.248 165.662,433.323 166.209,433.323 C167.731,433.323 169.221,432.743 170.352,431.663 L277.643,329.27 C279.304,327.684 279.914,325.291 279.216,323.102 C269.742,293.463 289.429,264.536 306.803,239.002 C314.384,227.861 321.544,217.34 326.441,206.975 C349.029,159.167 332.757,97.755 305.976,64.246 L305.976,64.246 Z M157.644,165.186 L153.648,158.844 C150.685,159.67 147.672,160.184 144.656,160.381 L142.997,167.693 C142.401,170.318 139.789,171.964 137.164,171.367 L121.845,167.889 C119.219,167.292 117.574,164.681 118.169,162.056 L119.829,154.744 C117.193,153.264 114.698,151.5 112.382,149.476 L106.041,153.471 C103.763,154.906 100.752,154.223 99.317,151.945 L90.944,138.654 C89.509,136.375 90.192,133.365 92.47,131.93 L98.811,127.935 C97.985,124.972 97.471,121.959 97.275,118.943 L89.962,117.283 C87.338,116.687 85.692,114.075 86.288,111.45 L89.766,96.131 C90.362,93.505 92.974,91.86 95.6,92.456 L102.912,94.116 C104.391,91.479 106.156,88.984 108.18,86.668 L104.185,80.327 C102.75,78.049 103.433,75.039 105.711,73.604 L119.002,65.231 C121.28,63.795 124.29,64.478 125.726,66.756 L129.721,73.097 C132.684,72.272 135.697,71.757 138.714,71.561 L140.373,64.249 C140.969,61.624 143.58,59.978 146.206,60.575 L161.524,64.052 C164.15,64.649 165.795,67.261 165.199,69.885 L163.54,77.197 C166.176,78.677 168.672,80.442 170.988,82.466 L177.329,78.471 C179.607,77.036 182.617,77.719 184.054,79.997 L192.426,93.288 C193.863,95.566 193.178,98.577 190.901,100.012 L184.56,104.007 C185.384,106.97 185.899,109.983 186.096,113 L193.407,114.659 C196.032,115.255 197.678,117.867 197.082,120.492 L193.604,135.811 C193.006,138.437 190.396,140.082 187.771,139.486 L180.459,137.826 C178.98,140.462 177.215,142.958 175.19,145.274 L179.185,151.616 C180.621,153.893 179.936,156.904 177.659,158.339 L164.368,166.712 C162.087,168.147 159.078,167.463 157.644,165.186 L157.644,165.186 Z M221.809,192.88 L217.734,193.974 C217.689,195.675 217.464,197.381 217.066,199.065 L220.72,201.173 C222.032,201.93 222.483,203.608 221.726,204.922 L217.307,212.581 C216.548,213.894 214.87,214.344 213.559,213.586 L209.905,211.478 C208.646,212.666 207.281,213.714 205.831,214.604 L206.925,218.68 C207.32,220.145 206.449,221.65 204.987,222.041 L196.448,224.333 C194.983,224.727 193.478,223.857 193.086,222.395 L191.992,218.318 C190.291,218.274 188.585,218.051 186.9,217.651 L184.792,221.305 C184.035,222.617 182.357,223.068 181.044,222.309 L173.385,217.891 C172.073,217.133 171.621,215.455 172.378,214.142 L174.486,210.488 C173.297,209.229 172.251,207.863 171.36,206.414 L167.284,207.508 C165.821,207.901 164.315,207.032 163.923,205.569 L161.631,197.028 C161.238,195.564 162.108,194.058 163.571,193.666 L167.647,192.572 C167.692,190.872 167.915,189.166 168.313,187.481 L164.66,185.373 C163.347,184.616 162.896,182.937 163.654,181.624 L168.072,173.965 C168.83,172.652 170.509,172.202 171.821,172.959 L175.474,175.067 C176.734,173.878 178.098,172.831 179.547,171.941 L178.453,167.865 C178.06,166.401 178.931,164.896 180.392,164.504 L188.933,162.212 C190.397,161.82 191.902,162.688 192.293,164.152 L193.388,168.228 C195.088,168.272 196.794,168.496 198.481,168.895 L200.586,165.241 C201.345,163.928 203.024,163.478 204.335,164.235 L211.994,168.653 C213.307,169.411 213.757,171.089 213,172.401 L210.893,176.055 C212.081,177.314 213.128,178.679 214.019,180.13 L218.095,179.036 C219.559,178.643 221.064,179.513 221.455,180.975 L223.747,189.515 C224.141,190.982 223.271,192.488 221.809,192.88 L221.809,192.88 Z M281.868,130.628 L276.468,132.077 C276.408,134.331 276.114,136.592 275.584,138.824 L280.426,141.617 C282.166,142.621 282.762,144.844 281.759,146.584 L275.905,156.733 C274.9,158.473 272.677,159.069 270.938,158.066 L266.096,155.273 C264.427,156.849 262.617,158.236 260.697,159.416 L262.147,164.817 C262.668,166.756 261.516,168.751 259.577,169.271 L248.262,172.307 C246.322,172.828 244.326,171.678 243.807,169.738 L242.358,164.336 C240.104,164.277 237.844,163.982 235.612,163.453 L232.819,168.295 C231.815,170.034 229.591,170.631 227.852,169.627 L217.703,163.773 C215.963,162.769 215.367,160.544 216.37,158.807 L219.164,153.964 C217.588,152.296 216.2,150.487 215.02,148.566 L209.62,150.015 C207.682,150.536 205.685,149.385 205.166,147.446 L202.13,136.13 C201.609,134.19 202.759,132.195 204.699,131.675 L210.1,130.226 C210.159,127.972 210.454,125.711 210.984,123.479 L206.141,120.686 C204.402,119.683 203.806,117.459 204.809,115.72 L210.663,105.571 C211.667,103.831 213.892,103.235 215.631,104.238 L220.473,107.031 C222.142,105.455 223.951,104.068 225.871,102.888 L224.423,97.488 C223.902,95.548 225.053,93.554 226.991,93.033 L238.307,89.996 C240.246,89.475 242.241,90.626 242.762,92.567 L244.211,97.967 C246.465,98.026 248.726,98.321 250.957,98.851 L253.751,94.009 C254.754,92.269 256.978,91.673 258.717,92.676 L268.865,98.53 C270.605,99.534 271.201,101.758 270.198,103.496 L267.404,108.338 C268.98,110.006 270.368,111.815 271.549,113.737 L276.948,112.288 C278.887,111.767 280.883,112.918 281.402,114.858 L284.439,126.174 C284.959,128.114 283.809,130.108 281.868,130.628 L281.868,130.628 Z" id="Shape"></path>
            </g>
        </g>
    </g>
</svg>